<svg width="25" height="25" viewBox="0 0 25 25" fill="none" xmlns="http://www.w3.org/2000/svg">
<path d="M11.1882 0.787971C11.3219 0.548216 11.5135 0.349285 11.7437 0.211022C11.974 0.0727602 12.2349 0 12.5005 0C12.766 0 13.0269 0.0727602 13.2572 0.211022C13.4874 0.349285 13.679 0.548216 13.8127 0.787971L17.2086 6.87961L23.8037 8.37269C24.0632 8.43159 24.3033 8.56052 24.5001 8.74663C24.697 8.93274 24.8437 9.16951 24.9257 9.43336C25.0077 9.6972 25.0221 9.97889 24.9674 10.2504C24.9128 10.5218 24.791 10.7736 24.6141 10.9805L20.1186 16.238L20.799 23.2526C20.8258 23.5289 20.7829 23.8076 20.6744 24.061C20.5659 24.3145 20.3957 24.5337 20.1807 24.6969C19.9658 24.8601 19.7136 24.9615 19.4494 24.991C19.1852 25.0205 18.9183 24.9771 18.6752 24.8651L12.5005 22.0211L6.32575 24.8651C6.08265 24.9771 5.81567 25.0205 5.55149 24.991C5.2873 24.9615 5.03514 24.8601 4.82019 24.6969C4.60524 24.5337 4.43502 24.3145 4.32653 24.061C4.21803 23.8076 4.17506 23.5289 4.2019 23.2526L4.88231 16.238L0.386758 10.9818C0.209642 10.7748 0.0875669 10.523 0.0327191 10.2514C-0.0221287 9.97974 -0.00783012 9.69783 0.0741874 9.43378C0.156205 9.16973 0.303072 8.93278 0.500126 8.74659C0.69718 8.56039 0.937527 8.43147 1.19717 8.37269L7.79227 6.87961L11.1882 0.787971Z" fill="#FFD015"/>
</svg>
