<svg width="26" height="26" viewBox="0 0 26 26" fill="none" xmlns="http://www.w3.org/2000/svg">
<path d="M11.25 15.25L8.5625 12.5625C8.33334 12.3333 8.04167 12.2188 7.6875 12.2188C7.33334 12.2188 7.04167 12.3333 6.8125 12.5625C6.58334 12.7917 6.46875 13.0833 6.46875 13.4375C6.46875 13.7917 6.58334 14.0833 6.8125 14.3125L10.375 17.875C10.625 18.125 10.9167 18.25 11.25 18.25C11.5833 18.25 11.875 18.125 12.125 17.875L19.1875 10.8125C19.4167 10.5833 19.5313 10.2917 19.5313 9.9375C19.5313 9.58333 19.4167 9.29167 19.1875 9.0625C18.9583 8.83333 18.6667 8.71875 18.3125 8.71875C17.9583 8.71875 17.6667 8.83333 17.4375 9.0625L11.25 15.25ZM13 25.5C11.2708 25.5 9.64584 25.1717 8.125 24.515C6.60417 23.8583 5.28125 22.9679 4.15625 21.8438C3.03125 20.7196 2.14084 19.3967 1.485 17.875C0.829168 16.3533 0.500835 14.7283 0.500002 13C0.499168 11.2717 0.827502 9.64667 1.485 8.125C2.1425 6.60333 3.03292 5.28042 4.15625 4.15625C5.27959 3.03208 6.6025 2.14167 8.125 1.485C9.6475 0.828333 11.2725 0.5 13 0.5C14.7275 0.5 16.3525 0.828333 17.875 1.485C19.3975 2.14167 20.7204 3.03208 21.8438 4.15625C22.9671 5.28042 23.8579 6.60333 24.5163 8.125C25.1746 9.64667 25.5025 11.2717 25.5 13C25.4975 14.7283 25.1692 16.3533 24.515 17.875C23.8608 19.3967 22.9704 20.7196 21.8438 21.8438C20.7171 22.9679 19.3942 23.8588 17.875 24.5163C16.3558 25.1738 14.7308 25.5017 13 25.5Z" fill="#5B4DFF"/>
</svg>
