<svg width="13" height="21" viewBox="0 0 13 21" fill="none" xmlns="http://www.w3.org/2000/svg">
<path d="M3.25 1.575C3.25 1.88651 3.1547 2.19102 2.97614 2.45002C2.79758 2.70903 2.54379 2.9109 2.24686 3.03011C1.94993 3.14932 1.6232 3.18051 1.30798 3.11974C0.992759 3.05897 0.703212 2.90896 0.475952 2.68869C0.248692 2.46843 0.0939256 2.18779 0.0312246 1.88227C-0.0314763 1.57675 0.000704084 1.26007 0.123696 0.972274C0.246689 0.684481 0.45497 0.4385 0.7222 0.265436C0.989429 0.0923731 1.30361 8.49438e-07 1.625 8.49438e-07C2.05598 8.49438e-07 2.4693 0.165938 2.77405 0.461307C3.0788 0.756677 3.25 1.15728 3.25 1.575ZM11.375 3.15C11.6964 3.15 12.0106 3.05763 12.2778 2.88457C12.545 2.7115 12.7533 2.46552 12.8763 2.17773C12.9993 1.88993 13.0315 1.57325 12.9688 1.26773C12.9061 0.962213 12.7513 0.681575 12.524 0.461307C12.2968 0.24104 12.0072 0.0910356 11.692 0.0302639C11.3768 -0.0305078 11.0501 0.000682421 10.7531 0.11989C10.4562 0.239098 10.2024 0.44097 10.0239 0.699978C9.8453 0.958985 9.75 1.2635 9.75 1.575C9.75 1.99272 9.92121 2.39332 10.226 2.68869C10.5307 2.98406 10.944 3.15 11.375 3.15ZM1.625 8.925C1.30361 8.925 0.989429 9.01737 0.7222 9.19044C0.45497 9.3635 0.246689 9.60948 0.123696 9.89727C0.000704084 10.1851 -0.0314763 10.5017 0.0312246 10.8073C0.0939256 11.1128 0.248692 11.3934 0.475952 11.6137C0.703212 11.834 0.992759 11.984 1.30798 12.0447C1.6232 12.1055 1.94993 12.0743 2.24686 11.9551C2.54379 11.8359 2.79758 11.634 2.97614 11.375C3.1547 11.116 3.25 10.8115 3.25 10.5C3.25 10.0823 3.0788 9.68168 2.77405 9.38631C2.4693 9.09094 2.05598 8.925 1.625 8.925ZM11.375 8.925C11.0536 8.925 10.7394 9.01737 10.4722 9.19044C10.205 9.3635 9.99669 9.60948 9.8737 9.89727C9.7507 10.1851 9.71852 10.5017 9.78122 10.8073C9.84392 11.1128 9.99869 11.3934 10.226 11.6137C10.4532 11.834 10.7428 11.984 11.058 12.0447C11.3732 12.1055 11.6999 12.0743 11.9969 11.9551C12.2938 11.8359 12.5476 11.634 12.7261 11.375C12.9047 11.116 13 10.8115 13 10.5C13 10.0823 12.8288 9.68168 12.524 9.38631C12.2193 9.09094 11.806 8.925 11.375 8.925ZM1.625 17.85C1.30361 17.85 0.989429 17.9424 0.7222 18.1154C0.45497 18.2885 0.246689 18.5345 0.123696 18.8223C0.000704084 19.1101 -0.0314763 19.4267 0.0312246 19.7323C0.0939256 20.0378 0.248692 20.3184 0.475952 20.5387C0.703212 20.759 0.992759 20.909 1.30798 20.9697C1.6232 21.0305 1.94993 20.9993 2.24686 20.8801C2.54379 20.7609 2.79758 20.559 2.97614 20.3C3.1547 20.041 3.25 19.7365 3.25 19.425C3.25 19.0073 3.0788 18.6067 2.77405 18.3113C2.4693 18.0159 2.05598 17.85 1.625 17.85ZM11.375 17.85C11.0536 17.85 10.7394 17.9424 10.4722 18.1154C10.205 18.2885 9.99669 18.5345 9.8737 18.8223C9.7507 19.1101 9.71852 19.4267 9.78122 19.7323C9.84392 20.0378 9.99869 20.3184 10.226 20.5387C10.4532 20.759 10.7428 20.909 11.058 20.9697C11.3732 21.0305 11.6999 20.9993 11.9969 20.8801C12.2938 20.7609 12.5476 20.559 12.7261 20.3C12.9047 20.041 13 19.7365 13 19.425C13 19.0073 12.8288 18.6067 12.524 18.3113C12.2193 18.0159 11.806 17.85 11.375 17.85Z" fill="black"/>
</svg>
