<svg width="36" height="36" viewBox="0 0 36 36" fill="none" xmlns="http://www.w3.org/2000/svg">
<path fill-rule="evenodd" clip-rule="evenodd" d="M25.875 15.75C25.875 17.0796 25.6131 18.3963 25.1043 19.6247C24.5955 20.8531 23.8496 21.9693 22.9095 22.9095C21.9693 23.8497 20.8531 24.5955 19.6247 25.1043C18.3962 25.6131 17.0796 25.875 15.75 25.875C14.4204 25.875 13.1038 25.6131 11.8753 25.1043C10.6469 24.5955 9.53074 23.8497 8.59055 22.9095C7.65035 21.9693 6.90455 20.8531 6.39572 19.6247C5.88689 18.3963 5.625 17.0796 5.625 15.75C5.625 13.0647 6.69174 10.4894 8.59055 8.59056C10.4894 6.69175 13.0647 5.62501 15.75 5.62501C18.4353 5.62501 21.0107 6.69175 22.9095 8.59056C24.8083 10.4894 25.875 13.0647 25.875 15.75ZM24.03 26.415C21.3173 28.521 17.9041 29.514 14.4851 29.1918C11.066 28.8697 7.89828 27.2567 5.62669 24.6812C3.3551 22.1056 2.15044 18.7612 2.25796 15.3287C2.36547 11.8962 3.77707 8.63373 6.2054 6.20541C8.63372 3.77708 11.8962 2.36548 15.3287 2.25797C18.7612 2.15045 22.1056 3.35511 24.6811 5.6267C27.2567 7.89829 28.8697 11.066 29.1918 14.4851C29.5139 17.9041 28.5209 21.3174 26.415 24.03L32.6925 30.3075C32.8583 30.462 32.9913 30.6483 33.0835 30.8553C33.1757 31.0623 33.2253 31.2858 33.2293 31.5123C33.2333 31.7389 33.1916 31.964 33.1068 32.1741C33.0219 32.3842 32.8956 32.5751 32.7353 32.7353C32.5751 32.8956 32.3842 33.0219 32.1741 33.1068C31.964 33.1917 31.7389 33.2333 31.5123 33.2293C31.2857 33.2253 31.0623 33.1758 30.8553 33.0835C30.6483 32.9913 30.462 32.8583 30.3075 32.6925L24.03 26.415Z" fill="#888888"/>
</svg>
