<svg width="24" height="24" viewBox="0 0 24 24" fill="none" xmlns="http://www.w3.org/2000/svg">
<path d="M13.6071 2.55203L15.4991 6.3672C15.7571 6.89825 16.4451 7.40779 17.0257 7.50454L20.4539 8.07967C22.647 8.44839 23.163 10.0523 21.5827 11.6347L18.9166 14.3222C18.4651 14.7769 18.2179 15.6552 18.3576 16.2841L19.1209 19.6112C19.7229 22.2449 18.3361 23.2629 16.0248 21.8869L12.8105 19.9681C12.23 19.6219 11.2732 19.6219 10.6819 19.9681L7.46975 21.8869C5.16919 23.2629 3.77165 22.2331 4.37367 19.6112L5.13694 16.2841C5.27669 15.6552 5.02944 14.7769 4.57792 14.3222L1.91186 11.6347C0.343392 10.0512 0.848655 8.44839 3.04063 8.07967L6.46997 7.50454C7.03974 7.40779 7.72775 6.89825 7.98576 6.3672L9.87781 2.55203C10.9098 0.482657 12.5869 0.482657 13.6082 2.55203" stroke="#5A5A5A" stroke-width="1.5" stroke-linecap="round" stroke-linejoin="round"/>
</svg>
