<svg width="28" height="28" viewBox="0 0 28 28" fill="none" xmlns="http://www.w3.org/2000/svg">
<path fill-rule="evenodd" clip-rule="evenodd" d="M21.3668 12.6145C21.3668 13.7639 21.1404 14.902 20.7006 15.9639C20.2607 17.0257 19.616 17.9906 18.8033 18.8033C17.9906 19.616 17.0258 20.2607 15.9639 20.7005C14.902 21.1404 13.7639 21.3667 12.6146 21.3667C11.4652 21.3667 10.3271 21.1404 9.26523 20.7005C8.20337 20.2607 7.23853 19.616 6.42581 18.8033C5.61309 17.9906 4.96841 17.0257 4.52857 15.9639C4.08873 14.902 3.86234 13.7639 3.86234 12.6145C3.86234 10.2933 4.78445 8.06713 6.42581 6.42577C8.06717 4.78441 10.2933 3.8623 12.6146 3.8623C14.9358 3.8623 17.162 4.78441 18.8033 6.42577C20.4447 8.06713 21.3668 10.2933 21.3668 12.6145ZM19.7719 21.8335C17.4271 23.6539 14.4766 24.5123 11.5211 24.2339C8.56566 23.9554 5.8274 22.5611 3.8638 20.3348C1.9002 18.1084 0.858876 15.2174 0.951813 12.2503C1.04475 9.28324 2.26496 6.46309 4.36405 4.364C6.46313 2.26492 9.28328 1.04471 12.2504 0.951771C15.2175 0.858834 18.1085 1.90016 20.3348 3.86376C22.5611 5.82736 23.9554 8.56561 24.2339 11.5211C24.5123 14.4765 23.654 17.427 21.8336 19.7719L27.2599 25.1983C27.4033 25.3318 27.5182 25.4929 27.5979 25.6718C27.6777 25.8507 27.7205 26.0439 27.724 26.2397C27.7274 26.4356 27.6914 26.6301 27.6181 26.8118C27.5447 26.9934 27.4355 27.1584 27.297 27.2969C27.1585 27.4354 26.9935 27.5446 26.8118 27.618C26.6302 27.6914 26.4356 27.7274 26.2398 27.7239C26.0439 27.7205 25.8508 27.6776 25.6718 27.5979C25.4929 27.5182 25.3319 27.4032 25.1983 27.2599L19.7719 21.8335Z" fill="#888888"/>
</svg>
