<svg width="75" height="75" viewBox="0 0 75 75" fill="none" xmlns="http://www.w3.org/2000/svg">
<path d="M33.4921 4.93362L3.02336 65.8711C1.88664 68.2266 2.87102 71.0567 5.22063 72.1934C5.85344 72.4981 6.53899 72.6621 7.24211 72.668H68.1796C70.7929 72.6446 72.8964 70.5059 72.873 67.8926C72.8659 67.192 72.7038 66.5017 72.3984 65.8711L41.9296 4.93362C41.5353 4.15319 40.9321 3.49744 40.1873 3.03931C39.4426 2.58118 38.5853 2.33862 37.7109 2.33862C36.8364 2.33862 35.9792 2.58118 35.2344 3.03931C34.4896 3.49744 33.8865 4.15319 33.4921 4.93362Z" fill="#F2A600"/>
<path d="M31.3828 9.21094L2.78902 66.2812C1.71676 68.4902 2.64254 71.1504 4.85152 72.2227C5.4316 72.5039 6.07027 72.6562 6.7148 72.668H63.8437C64.4247 72.6626 64.9989 72.5429 65.5335 72.3156C66.0682 72.0883 66.5529 71.7579 66.9599 71.3433C67.3669 70.9287 67.6882 70.438 67.9055 69.8992C68.1229 69.3604 68.2319 68.7841 68.2265 68.2031C68.22 67.5364 68.0638 66.8796 67.7695 66.2812L39.2343 9.21094C38.7318 8.17031 37.8368 7.37169 36.7458 6.99047C35.6549 6.60925 34.4573 6.6766 33.416 7.17773C32.5294 7.60829 31.8133 8.32438 31.3828 9.21094Z" fill="#FFCC32"/>
<path opacity="0.2" d="M37.7109 19.9336C40.4062 19.9336 42.5742 22.1016 42.3984 24.6211L40.4062 52.7461C40.1836 54.2344 38.8008 55.2656 37.3125 55.043C36.7338 54.9574 36.198 54.6879 35.7843 54.2742C35.3707 53.8606 35.1011 53.3248 35.0156 52.7461L33.0234 24.6211C32.8476 22.1016 35.0156 19.9336 37.7109 19.9336ZM37.7109 57.4336C39.6504 57.4336 41.2265 59.0098 41.2265 60.9492C41.2265 62.8887 39.6504 64.4648 37.7109 64.4648C35.7715 64.4648 34.1953 62.8887 34.1953 60.9492C34.1953 59.0098 35.7715 57.4336 37.7109 57.4336Z" fill="#424242"/>
<path d="M37.7109 19.9336C40.4062 19.9336 42.5742 22.1016 42.3984 24.6211L40.4062 52.7461C40.1836 54.2344 38.8008 55.2656 37.3125 55.043C36.7338 54.9574 36.198 54.6879 35.7843 54.2742C35.3707 53.8606 35.1011 53.3248 35.0156 52.7461L33.0234 24.6211C32.8476 22.1016 35.0156 19.9336 37.7109 19.9336Z" fill="url(#paint0_linear_249_4146)"/>
<path d="M37.7109 64.4648C39.6526 64.4648 41.2266 62.8908 41.2266 60.9492C41.2266 59.0076 39.6526 57.4336 37.7109 57.4336C35.7693 57.4336 34.1953 59.0076 34.1953 60.9492C34.1953 62.8908 35.7693 64.4648 37.7109 64.4648Z" fill="url(#paint1_linear_249_4146)"/>
<path d="M31.3827 13.4882C30.6796 14.3671 18.8437 37.5117 18.8437 37.5117C18.8437 37.5117 17.789 39.2695 19.2538 40.2656C20.6015 41.2031 21.8319 40.0898 22.3593 39.2109C22.8866 38.332 33.6093 17.5898 34.0194 16.5937C34.371 15.498 34.1249 14.3027 33.3749 13.4296C32.6132 12.7265 31.8515 12.8437 31.3827 13.4882Z" fill="#FFF170"/>
<path d="M18.375 46.0723C19.4429 46.0723 20.3086 45.2066 20.3086 44.1387C20.3086 43.0708 19.4429 42.2051 18.375 42.2051C17.3071 42.2051 16.4414 43.0708 16.4414 44.1387C16.4414 45.2066 17.3071 46.0723 18.375 46.0723Z" fill="#FFF170"/>
<defs>
<linearGradient id="paint0_linear_249_4146" x1="37.7109" y1="18.9082" x2="37.7109" y2="65.0156" gradientUnits="userSpaceOnUse">
<stop stop-color="#424242"/>
<stop offset="1" stop-color="#212121"/>
</linearGradient>
<linearGradient id="paint1_linear_249_4146" x1="37.7109" y1="21.2402" x2="37.7109" y2="67.3477" gradientUnits="userSpaceOnUse">
<stop stop-color="#424242"/>
<stop offset="1" stop-color="#212121"/>
</linearGradient>
</defs>
</svg>
