<svg width="24" height="24" viewBox="0 0 24 24" fill="none" xmlns="http://www.w3.org/2000/svg">
<path d="M23.3666 22.5298L16.2031 15.3224C17.5382 13.7233 18.3429 11.666 18.3429 9.41962C18.3429 4.33001 14.2169 0.203979 9.12729 0.203979C4.03768 0.203979 -0.0883484 4.33001 -0.0883484 9.41962C-0.0883484 14.5092 4.03768 18.6353 9.12729 18.6353C11.4397 18.6353 13.5519 17.7815 15.1702 16.3741L22.3237 23.5726C22.6116 23.8605 23.0787 23.8605 23.3666 23.5726C23.6541 23.2847 23.6541 22.8181 23.3666 22.5298H23.3666ZM9.12729 17.1729C4.84534 17.1729 1.37399 13.7016 1.37399 9.41962C1.37399 5.13766 4.84534 1.66632 9.12729 1.66632C13.4092 1.66632 16.8806 5.13766 16.8806 9.41962C16.8806 13.7016 13.4092 17.1729 9.12729 17.1729Z" fill="#888888"/>
</svg>
